<svg width="300" height="300" xmlns="http://www.w3.org/2000/svg">
 <g>
  <title>Layer 1</title>
  <g transform="rotate(-35 146.761 150.738)" stroke="null" id="svg_1">
   <path stroke="null" d="m64.98232,155.71286l1.9915,0c2.0238,8.55127 7.4339,30.57934 18.10589,31.99315c13.59842,1.79957 20.72828,-28.37501 21.68982,-37.96384l1.9896,0c4.33644,14.98182 8.90472,34.46352 23.87895,41.7872c5.52222,-23.20244 -1.09076,-47.94602 -9.57552,-69.64344c-2.18152,-5.58113 -6.65099,-20.62376 -14.35283,-20.62376c-12.60267,0 -19.68882,33.22263 -21.83804,42.51121l-1.9896,0l-15.91866,-47.75599c-28.00066,13.37229 -43.21242,84.47514 -31.83733,111.43064c17.10254,-8.16551 25.24145,-34.01505 27.85624,-51.73518z" id="svg_3"/>
   <path stroke="null" d="m206.2607,155.71286l1.9896,0l15.91866,47.75599c12.8079,-3.68085 17.26216,-16.35573 21.88745,-27.85814c9.92707,-24.69037 18.25601,-55.05497 11.93947,-81.58291c-19.11114,5.412 -24.926,32.74186 -29.84583,49.74559c-4.0476,-9.08525 -7.81776,-27.03531 -18.1971,-31.02781c-13.36278,-5.13076 -21.62141,28.50423 -23.5901,36.99659l-1.9896,0c-3.3692,-14.56186 -7.88997,-35.19893 -23.87895,-39.79571c-7.4111,31.08862 7.73415,64.6267 21.88935,91.53279c15.11484,-7.22297 22.47844,-29.84393 23.87705,-45.7664z" id="svg_4"/>
  </g>
 </g>

</svg>